<svg version="1.2" xmlns="http://www.w3.org/2000/svg" viewBox="0 0 956 196" width="956" height="196">
	<title>betlily final-ai</title>
	<style>
		tspan { white-space:pre } 
		.s0 { fill: #6cc186 } 
		.s1 { fill: #d04b98 } 
		.t2 { font-size: 12px;fill: #2c2e35;font-family: "Myriad Pro" } 
	</style>
	<g id="Layer 1">
		<g id="&lt;Group&gt;">
			<g id="&lt;Group&gt;">
				<g id="&lt;Group&gt;">
					<g id="&lt;Group&gt;">
						<path id="&lt;Compound Path&gt;" class="s0" d="m265.7 75.9c12-6.4 18.9-16.5 18.9-30.5 0-20-16.8-34.4-41.1-34.4h-68.7v0.7c16 3.3 29.9 12.1 39.8 24.5h21.6c10.9 0 18.6 6.4 18.6 15 0 8.8-7.7 15.2-18.6 15.2h-7.7q1.2 6.4 1.3 13.2-0.1 5.1-0.7 9.9h11.7c11.6 0 19.9 7 19.9 16.8 0 9.8-8.3 16.8-19.9 16.8h-26.2c-9.9 12.4-23.8 21.2-39.8 24.4v0.8h71.3c25.9 0 44.4-15.2 44.4-37.2 0-15.2-9-28-24.8-35.2z"/>
					</g>
				</g>
				<g id="&lt;Group&gt;">
					<g id="&lt;Group&gt;">
						<path id="&lt;Path&gt;" class="s1" d="m134.5 124.5c7.5-33.1 22.6-58.6 48.6-76.8 8.8-6.1 18.4-10.5 28.8-12.9 1.5-0.4 4.1 0.5 5.1 1.7 13.3 15.8 18.4 34.3 15.9 54.9-4.8 40.3-40.4 63.9-73.9 60.6-8-0.8-15.8-4.1-23.6-6.4-2.4-0.6-3.3-2.3-2.9-5.1 1-6 1.6-12.2 2-16z"/>
					</g>
					<g id="&lt;Group&gt;">
						<g id="&lt;Group&gt;">
							<path id="&lt;Path&gt;" class="s1" d="m194.8 17.8c-50.5 17.1-75.6 54.9-84.6 106.3-17.6-19.7-20.9-58.4 0-85.8 22.9-29.9 60.7-33.7 84.6-20.5z"/>
						</g>
					</g>
					<g id="&lt;Group&gt;">
						<g id="&lt;Group&gt;">
							<path id="&lt;Path&gt;" class="s1" d="m125.4 139.4c-8.2-4.3-9.1-6.6-8.1-15.2 2.2-18 7.8-35.1 17.1-50.3 15.5-25.3 36.8-43.5 66.3-49.8 3.3-0.7 4.3-0.2 7.7 3.8-51.7 18.4-75.9 58-83 111.5z"/>
						</g>
					</g>
					<g id="&lt;Group&gt;">
						<g id="&lt;Group&gt;">
							<path id="&lt;Path&gt;" class="s1" d="m-0.5 172.8c31.5-20.7 62.9-41.4 94.6-62.3 3 5.5 5.8 10.7 8.8 16.2-34.4 15.6-68.7 31.2-103 46.7q-0.2-0.3-0.4-0.6z"/>
						</g>
					</g>
					<g id="&lt;Group&gt;">
						<g id="&lt;Group&gt;">
							<path id="&lt;Path&gt;" class="s1" d="m121.3 145.2c-22.7 10.4-45 20.5-67.3 30.6q-0.2-0.3-0.5-0.7c0.5-0.5 0.9-1.1 1.5-1.6 16.8-12.2 33.7-24.4 50.5-36.8 2.8-2.1 4.5-2.1 6.8 0.4 2.6 2.8 5.7 5.2 9 8.1z"/>
						</g>
					</g>
					<g id="&lt;Group&gt;">
						<g id="&lt;Group&gt;">
							<path id="&lt;Path&gt;" class="s1" d="m89.1 78.9c0.3 5 0.9 9.5 0.7 14-0.1 1.4-2.2 3-3.7 3.9-11.2 6.3-22.6 12.4-33.9 18.6-8.3 4.5-16.5 9.1-25.1 13 20.6-16.4 41.2-32.9 62-49.5z"/>
						</g>
					</g>
					<g id="&lt;Group&gt;">
						<g id="&lt;Group&gt;">
							<path id="&lt;Path&gt;" class="s1" d="m86 184.9c14.9-10.7 29.8-21.4 44.8-32 0.9-0.7 2.5-0.8 3.6-0.5 3.9 1.2 7.7 2.7 12.2 4.4-20.3 9.7-40.3 19.3-60.2 28.9q-0.2-0.4-0.4-0.8z"/>
						</g>
					</g>
				</g>
			</g>
			<g id="&lt;Group&gt;">
				<g id="&lt;Group&gt;">
					<g id="&lt;Group&gt;">
						<path id="&lt;Compound Path&gt;" class="s0" d="m415.7 41.1v-30.7h-110.4v137.7h110.4v-30.7h-75.5v-24.2h68.5v-30.7h-68.5v-21.4z"/>
					</g>
				</g>
				<g id="&lt;Group&gt;">
					<g id="&lt;Group&gt;">
						<path id="&lt;Compound Path&gt;" class="s0" d="m429.5 10.4v30.7h42.7v107h34.9v-107h42.4v-30.7z"/>
					</g>
				</g>
			</g>
			<path id="&lt;Compound Path&gt;" class="s1" d="m667.6 121.1v26.5h-97.9v-137.2h29.6v110.7z"/>
			<path id="&lt;Compound Path&gt;" class="s1" d="m687 10.4h29.6v137.2h-29.6z"/>
			<path id="&lt;Compound Path&gt;" class="s1" d="m840.8 121.1v26.5h-97.8v-137.2h29.5v110.7z"/>
			<path id="&lt;Compound Path&gt;" class="s1" d="m872.8 98.1l-53.8-87.7h34.4l34.2 60.1 35.5-60.1h33l-53.5 87.7v49.5h-29.8z"/>
		</g>
		<g id="&lt;Group&gt;">
			<g id="&lt;Group&gt;">
				<g id="&lt;Group&gt;">
				</g>
			</g>
			<g id="&lt;Group&gt;">
				<g id="&lt;Group&gt;">
				</g>
				<g id="&lt;Group&gt;">
					<g id="&lt;Group&gt;">
					</g>
				</g>
				<g id="&lt;Group&gt;">
					<g id="&lt;Group&gt;">
					</g>
				</g>
				<g id="&lt;Group&gt;">
					<g id="&lt;Group&gt;">
					</g>
				</g>
				<g id="&lt;Group&gt;">
					<g id="&lt;Group&gt;">
					</g>
				</g>
				<g id="&lt;Group&gt;">
					<g id="&lt;Group&gt;">
					</g>
				</g>
				<g id="&lt;Group&gt;">
					<g id="&lt;Group&gt;">
					</g>
				</g>
			</g>
			<g id="&lt;Group&gt;">
				<g id="&lt;Group&gt;">
					<g id="&lt;Group&gt;">
					</g>
				</g>
				<g id="&lt;Group&gt;">
					<g id="&lt;Group&gt;">
					</g>
				</g>
			</g>
		</g>
		<g id="&lt;Group&gt;">
			<g id="&lt;Group&gt;">
				<g id="&lt;Group&gt;">
				</g>
			</g>
			<g id="&lt;Group&gt;">
				<g id="&lt;Group&gt;">
				</g>
				<g id="&lt;Group&gt;">
					<g id="&lt;Group&gt;">
					</g>
				</g>
				<g id="&lt;Group&gt;">
					<g id="&lt;Group&gt;">
					</g>
				</g>
				<g id="&lt;Group&gt;">
					<g id="&lt;Group&gt;">
					</g>
				</g>
				<g id="&lt;Group&gt;">
					<g id="&lt;Group&gt;">
					</g>
				</g>
				<g id="&lt;Group&gt;">
					<g id="&lt;Group&gt;">
					</g>
				</g>
				<g id="&lt;Group&gt;">
					<g id="&lt;Group&gt;">
					</g>
				</g>
			</g>
			<g id="&lt;Group&gt;">
				<g id="&lt;Group&gt;">
					<g id="&lt;Group&gt;">
					</g>
				</g>
				<g id="&lt;Group&gt;">
					<g id="&lt;Group&gt;">
					</g>
				</g>
			</g>
			<g id="&lt;Group&gt;">
			</g>
			<g id="&lt;Group&gt;">
			</g>
		</g>
		<g id="&lt;Group&gt;">
			<g id="&lt;Group&gt;">
				<g id="&lt;Group&gt;">
				</g>
			</g>
			<g id="&lt;Group&gt;">
				<g id="&lt;Group&gt;">
				</g>
				<g id="&lt;Group&gt;">
					<g id="&lt;Group&gt;">
					</g>
				</g>
				<g id="&lt;Group&gt;">
					<g id="&lt;Group&gt;">
					</g>
				</g>
				<g id="&lt;Group&gt;">
					<g id="&lt;Group&gt;">
					</g>
				</g>
				<g id="&lt;Group&gt;">
					<g id="&lt;Group&gt;">
					</g>
				</g>
				<g id="&lt;Group&gt;">
					<g id="&lt;Group&gt;">
					</g>
				</g>
				<g id="&lt;Group&gt;">
					<g id="&lt;Group&gt;">
					</g>
				</g>
			</g>
			<g id="&lt;Group&gt;">
				<g id="&lt;Group&gt;">
					<g id="&lt;Group&gt;">
					</g>
				</g>
				<g id="&lt;Group&gt;">
					<g id="&lt;Group&gt;">
					</g>
				</g>
			</g>
			<g id="&lt;Group&gt;">
			</g>
			<g id="&lt;Group&gt;">
			</g>
		</g>
		<g id="&lt;Group&gt;">
			<text id="IF YOU NEED UNIQUE DESIGN let me know 
" style="transform: matrix(1,0,0,1,1177,1023)" >
				<tspan x="0" y="0" class="t2">IF YOU NEED UNIQUE DESIGN let me know 
</tspan>
			</text>
		</g>
	</g>
</svg>